<svg xmlns="http://www.w3.org/2000/svg" width="34.24" height="34.93" viewBox="0 0 34.24 34.93"><title>equal-housing</title><path d="M4.87,9.53V21.91H29.4V9.6L17.13,3.73ZM23.63,19H10.57V15.6H23.63Zm0-5.47H10.57V10.05H23.63Z" fill="none"/><path d="M17.13,0,0,8.11v3.73l1.6-.76v14.1H32.67v-14l1.57.75V8.11ZM29.4,21.91H4.87V9.53L17.13,3.73,29.4,9.6Z"/><rect x="10.57" y="15.6" width="13.06" height="3.43"/><rect x="10.57" y="10.05" width="13.06" height="3.51"/><path d="M3.09,35a1.37,1.37,0,1,0,0-2.74,1.37,1.37,0,1,0,0,2.74Zm0-2.24a.86.86,0,0,1,.84.85.93.93,0,0,1-.84.89.93.93,0,0,1-.84-.89.86.86,0,0,1,.84-.85Z"/><path d="M6,34h.28c.59,0,.92-.27.92-.82s-.39-.81-1-.81H5.48v2.61H6V34Zm0-1.21h.1c.31,0,.52,0,.52.38s-.18.4-.51.4H6v-.79Z"/><path d="M8.75,34H9c.59,0,.92-.27.92-.82s-.39-.81-1-.81H8.2v2.61h.56V34Zm0-1.21h.1c.31,0,.52,0,.52.38s-.18.4-.51.4H8.75v-.79Z"/><path d="M12.19,35a1.37,1.37,0,1,0-1.42-1.38A1.37,1.37,0,0,0,12.19,35Zm0-2.24a.86.86,0,0,1,.84.85.93.93,0,0,1-.84.89.93.93,0,0,1-.84-.89.86.86,0,0,1,.84-.85Z"/><path d="M15.71,33.83a.7.7,0,0,0,.59-.72c0-.56-.39-.78-1-.78h-.76v2.61h.56V33.88h0l.7,1.05h.68l-.81-1.1Zm-.57-1.09h.08c.3,0,.52.06.52.38s-.22.4-.52.4h-.07v-.78Z"/><polygon points="18.26 32.77 18.84 32.77 18.84 32.32 17.13 32.32 17.13 32.77 17.7 32.77 17.7 34.93 18.26 34.93 18.26 32.77 18.26 32.77 18.26 32.77"/><path d="M19.74,33.88a1.07,1.07,0,1,0,2.13,0V32.32h-.56v1.46c0,.32,0,.77-.51.77s-.51-.45-.51-.77V32.32h-.56v1.56Z"/><polygon points="22.96 34.93 23.52 34.93 23.52 33.16 23.53 33.16 25.04 34.98 25.44 34.98 25.44 32.32 24.88 32.32 24.88 34.08 24.88 34.08 23.37 32.26 22.96 32.26 22.96 34.93 22.96 34.93 22.96 34.93"/><polygon points="27.11 32.32 26.55 32.32 26.55 34.93 27.11 34.93 27.11 32.32 27.11 32.32 27.11 32.32"/><polygon points="29.15 32.77 29.73 32.77 29.73 32.32 28.02 32.32 28.02 32.77 28.59 32.77 28.59 34.93 29.15 34.93 29.15 32.77 29.15 32.77 29.15 32.77"/><polygon points="31.27 33.73 31.27 34.93 31.82 34.93 31.82 33.73 32.73 32.32 32.08 32.32 31.53 33.23 31.02 32.32 30.38 32.32 31.27 33.73 31.27 33.73 31.27 33.73"/><polygon points="3.29 28.73 3.29 28.29 1.81 28.29 1.81 30.9 3.29 30.9 3.29 30.46 2.37 30.46 2.37 29.75 3.26 29.75 3.26 29.31 2.37 29.31 2.37 28.73 3.29 28.73 3.29 28.73 3.29 28.73"/><path d="M6.48,31l-.39-.42a1.44,1.44,0,0,0,.34-.94A1.38,1.38,0,0,0,5,28.22,1.37,1.37,0,1,0,5,31a1.39,1.39,0,0,0,.71-.18l.2.22L6.48,31Zm-1.06-1.1-.58,0,.47.49a.64.64,0,0,1-.3.09.82.82,0,0,1-.84-.85.84.84,0,1,1,1.68,0,.85.85,0,0,1-.18.54l-.25-.26Z"/><path d="M6.75,29.85A1,1,0,0,0,7.82,31a1,1,0,0,0,1.06-1.12V28.29H8.32v1.46c0,.32,0,.77-.51.77s-.5-.45-.5-.77V28.29H6.75v1.56Z"/><path d="M10.92,30.35l.22.55h.6l-1.09-2.68h-.43L9.1,30.9h.59l.24-.55Zm-.16-.42h-.68L10.4,29h0l.36.95Z"/><polygon points="12.54 28.29 11.98 28.29 11.98 30.9 13.33 30.9 13.33 30.46 12.54 30.46 12.54 28.29 12.54 28.29 12.54 28.29"/><polygon points="16.33 29.32 16.33 28.29 15.78 28.29 15.78 30.9 16.33 30.9 16.33 29.73 17.37 29.73 17.37 30.9 17.93 30.9 17.93 28.29 17.37 28.29 17.37 29.32 16.33 29.32 16.33 29.32 16.33 29.32"/><path d="M19.68,31a1.37,1.37,0,1,0-1.42-1.38A1.37,1.37,0,0,0,19.68,31Zm0-2.24a.86.86,0,0,1,.84.85.84.84,0,1,1-1.68,0,.85.85,0,0,1,.84-.85Z"/><path d="M21.43,29.85a1.07,1.07,0,1,0,2.13,0V28.29H23v1.46c0,.32,0,.77-.51.77s-.51-.45-.51-.77V28.29h-.56v1.56Z"/><path d="M25.63,28.51a1.24,1.24,0,0,0-.78-.29A.8.8,0,0,0,24,29c0,.4.27.57.64.71s.5.16.5.43a.36.36,0,0,1-.37.38.58.58,0,0,1-.52-.38l-.36.32a1,1,0,0,0,.88.51.86.86,0,0,0,.94-.89c0-.87-1.14-.69-1.14-1.13a.33.33,0,0,1,.35-.29.53.53,0,0,1,.43.21l.26-.35Z"/><polygon points="26.64 28.29 26.08 28.29 26.08 30.9 26.64 30.9 26.64 28.29 26.64 28.29 26.64 28.29"/><polygon points="27.11 30.9 27.67 30.9 27.67 29.13 27.68 29.13 29.19 30.95 29.59 30.95 29.59 28.29 29.03 28.29 29.03 30.04 29.03 30.04 27.52 28.22 27.11 28.22 27.11 30.9 27.11 30.9 27.11 30.9"/><path d="M31.36,29.51v.41H32a.65.65,0,0,1-.65.59.85.85,0,0,1-.81-.91.86.86,0,0,1,.81-.93.73.73,0,0,1,.65.42l.49-.24a1.26,1.26,0,0,0-1.13-.62,1.35,1.35,0,0,0-1.4,1.38A1.33,1.33,0,0,0,31.29,31a1.27,1.27,0,0,0,1.3-1.39v-.06Z"/></svg>