<svg xmlns="http://www.w3.org/2000/svg" width="23" height="23" viewBox="0 0 23 23"><title>instagram-01</title><path d="M11.5,2.07c3.07,0,3.43,0,4.65.07a6.36,6.36,0,0,1,2.14.4,3.56,3.56,0,0,1,1.32.86,3.56,3.56,0,0,1,.86,1.32,6.36,6.36,0,0,1,.4,2.14c.06,1.21.07,1.58.07,4.65s0,3.43-.07,4.65a6.36,6.36,0,0,1-.4,2.14,3.81,3.81,0,0,1-2.18,2.18,6.36,6.36,0,0,1-2.14.4c-1.21.06-1.58.07-4.65.07s-3.43,0-4.65-.07a6.36,6.36,0,0,1-2.14-.4A3.56,3.56,0,0,1,3.4,19.6a3.56,3.56,0,0,1-.86-1.32,6.36,6.36,0,0,1-.4-2.14c-.06-1.21-.07-1.58-.07-4.65s0-3.43.07-4.65a6.36,6.36,0,0,1,.4-2.14A3.56,3.56,0,0,1,3.4,3.4a3.56,3.56,0,0,1,1.32-.86,6.36,6.36,0,0,1,2.14-.4c1.21-.06,1.58-.07,4.65-.07M11.5,0C8.38,0,8,0,6.76.07A8.44,8.44,0,0,0,4,.6a5.64,5.64,0,0,0-2,1.33A5.64,5.64,0,0,0,.6,4,8.44,8.44,0,0,0,.07,6.76C0,8,0,8.38,0,11.5S0,15,.07,16.24A8.44,8.44,0,0,0,.6,19a5.64,5.64,0,0,0,1.33,2A5.64,5.64,0,0,0,4,22.4a8.44,8.44,0,0,0,2.79.53C8,23,8.38,23,11.5,23s3.51,0,4.74-.07A8.44,8.44,0,0,0,19,22.4,5.88,5.88,0,0,0,22.4,19a8.44,8.44,0,0,0,.53-2.79C23,15,23,14.62,23,11.5S23,8,22.93,6.76A8.44,8.44,0,0,0,22.4,4a5.64,5.64,0,0,0-1.33-2A5.64,5.64,0,0,0,19,.6,8.44,8.44,0,0,0,16.24.07C15,0,14.62,0,11.5,0Z"/><path d="M11.5,5.59a5.91,5.91,0,1,0,5.91,5.91A5.91,5.91,0,0,0,11.5,5.59Zm0,9.74a3.83,3.83,0,1,1,3.83-3.83A3.83,3.83,0,0,1,11.5,15.33Z"/><circle cx="17.64" cy="5.36" r="1.38"/></svg>