<svg xmlns="http://www.w3.org/2000/svg" width="30.11" height="34.93" viewBox="0 0 30.11 34.93"><title>realtor</title><path d="M.61,30.81h.65a1.33,1.33,0,0,1,1,.22,1,1,0,0,1,.31.78.89.89,0,0,1-1,.89H1.16l1.33,2.17h.56L2,33.11a1.26,1.26,0,0,0,1.1-1.32,1.41,1.41,0,0,0-.59-1.16,1.79,1.79,0,0,0-1.1-.26H.17v4.52H.61V30.81Z"/><polygon points="5.14 32.38 5.14 30.81 7.05 30.81 7.05 30.37 4.73 30.37 4.73 34.87 7.05 34.87 7.05 34.43 5.14 34.43 5.14 32.84 7.05 32.84 7.05 32.38 5.14 32.38"/><path d="M11.14,33.06H9.43l.85-2.26.86,2.26ZM8.75,34.87l.54-1.41h2l.54,1.41h.48l-1.74-4.52H10L8.27,34.87Z"/><polygon points="15.62 34.87 15.62 34.43 14.03 34.43 14.03 30.37 13.58 30.37 13.58 34.87 15.62 34.87"/><polygon points="17.84 34.87 17.84 30.81 18.75 30.81 18.75 30.37 16.51 30.37 16.51 30.81 17.39 30.81 17.39 34.87 17.84 34.87"/><path d="M19.69,32.59a2.31,2.31,0,0,0,4,1.62A2.41,2.41,0,0,0,23.62,31a2.27,2.27,0,0,0-3.2,0,2.15,2.15,0,0,0-.73,1.65Zm.46,0a2,2,0,0,1,.68-1.48A1.73,1.73,0,0,1,22,30.68a1.91,1.91,0,0,1,0,3.81,1.82,1.82,0,0,1-1.84-1.91Z"/><path d="M26.24,30.81h.65a1.33,1.33,0,0,1,1,.22,1,1,0,0,1,.31.78.89.89,0,0,1-1,.89h-.43l1.33,2.17h.52l-1.1-1.76a1.26,1.26,0,0,0,1.1-1.32,1.43,1.43,0,0,0-.57-1.16,1.79,1.79,0,0,0-1.1-.26h-1.2v4.52h.44l0-4.07Z"/><path d="M0,0V28.74h28.5V0ZM26.25,25.09H15V14.29ZM15,14.23V3.41h3.2a5.43,5.43,0,0,1,0,10.84ZM12,3.3V25.14H3.75V3.3Z"/><path d="M29.3,29.53a.77.77,0,0,0-.57.24.78.78,0,0,0-.24.57.81.81,0,1,0,1.62,0,.8.8,0,0,0-.81-.81Zm.73.81a.67.67,0,0,1-.21.5.76.76,0,0,1-.52.22.78.78,0,0,1-.52-.22.69.69,0,0,1-.22-.52.78.78,0,0,1,.22-.52.71.71,0,0,1,.5-.21.69.69,0,0,1,.52.22.74.74,0,0,1,.24.54Zm-.71-.47H29v.94h.14v-.4h.22l.21.4h.17l-.21-.43a.24.24,0,0,0,.22-.24c0-.21-.16-.27-.42-.27Zm0,.09c.18,0,.27.05.27.17s-.09.17-.27.17h-.16V30Z"/></svg>