<svg xmlns="http://www.w3.org/2000/svg" width="14" height="14" viewBox="0 0 14 14"><title>search</title><path d="M10,8.82l4,4L12.8,14l-4-4V9.38L8.6,9.16A5,5,0,0,1,5.22,10.4a5.06,5.06,0,0,1-3.7-1.5A5,5,0,0,1,0,5.22a5,5,0,0,1,1.52-3.7A5,5,0,0,1,5.22,0,5,5,0,0,1,8.9,1.52a5.07,5.07,0,0,1,1.5,3.7A5,5,0,0,1,9.16,8.6l.23.23ZM2.66,7.77A3.47,3.47,0,0,0,5.22,8.82,3.47,3.47,0,0,0,7.77,7.77,3.48,3.48,0,0,0,8.82,5.22,3.48,3.48,0,0,0,7.77,2.66,3.48,3.48,0,0,0,5.22,1.61,3.48,3.48,0,0,0,2.66,2.66,3.47,3.47,0,0,0,1.61,5.22,3.47,3.47,0,0,0,2.66,7.77Z"/></svg>