<svg xmlns="http://www.w3.org/2000/svg" width="51.88" height="34.78" viewBox="0 0 51.88 34.78"><title>TEN-logo-mark</title><polygon points="50.89 0.53 32.92 0.53 0 33.67 18.68 33.67 50.89 0.53" fill="#2399a6"/><polygon points="48.91 0.53 32.92 0.53 0 33.67 16.69 33.67 48.91 0.53" fill="#26b9c0"/><polygon points="49.67 33.15 51.88 33.15 18.97 0 0.99 0 26.14 26.02 34.35 17.6 49.67 33.15" fill="#2399a6"/><polygon points="33.27 16.69 17.04 16.58 0 33.67 16.69 33.67 33.27 16.69" fill="#237377"/><polygon points="35.77 26.6 31.22 25.85 31.32 30.58 35.77 30.58 35.77 26.6" fill="#f8c82f"/><polygon points="31.32 31.11 31.4 34.78 35.77 34.34 35.77 31.11 31.32 31.11" fill="#f8c82f"/><polygon points="38.97 30.58 39.05 27.14 36.3 26.68 36.3 30.58 38.97 30.58" fill="#f8c82f"/><polygon points="36.3 34.28 38.89 34.02 38.96 31.11 36.3 31.11 36.3 34.28" fill="#f8c82f"/></svg>