<svg xmlns="http://www.w3.org/2000/svg" width="21.11" height="17.19" viewBox="0 0 21.11 17.19"><title>twitter</title><path d="M18.94,4.27c0,.19,0,.38,0,.56A12.23,12.23,0,0,1,6.65,17.15,12.23,12.23,0,0,1,0,15.21a9,9,0,0,0,1,.05,8.67,8.67,0,0,0,5.37-1.85,4.33,4.33,0,0,1-4-3,5.47,5.47,0,0,0,.82.07,4.58,4.58,0,0,0,1.14-.15A4.33,4.33,0,0,1,.86,6.08V6a4.36,4.36,0,0,0,2,.55A4.33,4.33,0,0,1,1.47.79,12.3,12.3,0,0,0,10.4,5.32a4.9,4.9,0,0,1-.11-1,4.33,4.33,0,0,1,7.49-3,8.52,8.52,0,0,0,2.75-1,4.31,4.31,0,0,1-1.9,2.38A8.68,8.68,0,0,0,21.11,2,9.32,9.32,0,0,1,18.94,4.27Z"/></svg>