<svg xmlns="http://www.w3.org/2000/svg" width="19.85" height="24.01" viewBox="0 0 19.85 24.01"><title>youtube</title><path d="M19.51,21.78a2.5,2.5,0,0,1-2.14,1.94A65.6,65.6,0,0,1,9.93,24a65.6,65.6,0,0,1-7.44-.28A2.49,2.49,0,0,1,.35,21.78,21.11,21.11,0,0,1,0,17.09a21.87,21.87,0,0,1,.35-4.69,2.54,2.54,0,0,1,2.16-2,68.43,68.43,0,0,1,7.42-.27,68.81,68.81,0,0,1,7.44.27,2.52,2.52,0,0,1,2.14,2,21.05,21.05,0,0,1,.35,4.69A21.93,21.93,0,0,1,19.51,21.78Zm-13.84-8V12.5H1.49v1.26H2.89v7.62H4.23V13.76ZM7.85,0,6.23,5.35V9H4.89V5.35a21.28,21.28,0,0,0-.82-2.84C3.78,1.67,3.48.83,3.2,0H4.62l1,3.52L6.48,0ZM9.28,21.38V14.76H8.09v5.06q-.4.56-.76.56T7,20.11a3.14,3.14,0,0,1,0-.47V14.76H5.84V20a3.26,3.26,0,0,0,.11,1,.73.73,0,0,0,.78.5,2,2,0,0,0,1.37-.82v.72ZM11.44,6.81a2.64,2.64,0,0,1-.37,1.58,1.65,1.65,0,0,1-1.42.68,1.65,1.65,0,0,1-1.41-.68,2.68,2.68,0,0,1-.37-1.58V4.46a2.6,2.6,0,0,1,.38-1.57,1.65,1.65,0,0,1,1.41-.68,1.65,1.65,0,0,1,1.42.68,2.6,2.6,0,0,1,.38,1.57ZM10.22,4.22c0-.62-.17-.92-.58-.92s-.58.31-.58.92V7c0,.62.19.94.58.94s.58-.32.58-.94Zm3.62,12.54a4.59,4.59,0,0,0-.12-1.33.94.94,0,0,0-1-.75,1.63,1.63,0,0,0-1.25.72V12.5H10.33v8.88h1.19v-.64a1.65,1.65,0,0,0,1.25.74.94.94,0,0,0,1-.74,4.75,4.75,0,0,0,.12-1.34Zm-1.19,2.73c0,.6-.17.9-.52.9a.86.86,0,0,1-.6-.29v-4a.86.86,0,0,1,.6-.29c.35,0,.52.31.52.9ZM15.93,9H14.71V8.24a1.92,1.92,0,0,1-1.38.83.76.76,0,0,1-.79-.5,3.41,3.41,0,0,1-.11-1V2.29h1.22V7.21a3,3,0,0,0,0,.47c0,.19.12.29.28.29s.5-.19.76-.58V2.29h1.22Zm2.44,10.11H17.15a7.12,7.12,0,0,1,0,.82.52.52,0,0,1-.54.48c-.42,0-.62-.31-.62-.92V18.3h2.4V16.92A2.66,2.66,0,0,0,18,15.37a1.83,1.83,0,0,0-2.85,0,2.55,2.55,0,0,0-.38,1.55v2.32a2.52,2.52,0,0,0,.39,1.55,1.7,1.7,0,0,0,1.45.68,1.66,1.66,0,0,0,1.45-.71,1.55,1.55,0,0,0,.28-.72,5.21,5.21,0,0,0,0-.78ZM17.18,17.3H16v-.62c0-.6.2-.91.6-.91s.6.31.6.91Z"/></svg>